<?xml version="1.0" standalone="no"?>
<!DOCTYPE svg PUBLIC "-//W3C//DTD SVG 20010904//EN"
 "http://www.w3.org/TR/2001/REC-SVG-20010904/DTD/svg10.dtd">
<svg version="1.0" xmlns="http://www.w3.org/2000/svg"
 width="600.000000pt" height="600.000000pt" viewBox="0 0 600.000000 600.000000"
 preserveAspectRatio="xMidYMid meet">
<metadata>
Created by potrace 1.11, written by Peter Selinger 2001-2013
</metadata>
<g transform="translate(0.000000,600.000000) scale(0.100000,-0.100000)"
fill="#000000" stroke="none">
<path d="M0 3000 l0 -3000 3000 0 3000 0 0 3000 0 3000 -3000 0 -3000 0 0
-3000z m3359 840 c40 -11 92 -30 115 -41 42 -22 165 -110 166 -119 0 -3 -36
-41 -79 -84 l-80 -79 -32 27 c-80 68 -188 101 -330 101 -87 0 -101 -3 -161
-33 -74 -36 -113 -80 -134 -150 -38 -123 12 -232 128 -282 30 -13 127 -34 229
-51 168 -27 263 -53 319 -87 48 -30 122 -107 146 -154 50 -98 68 -248 43 -357
-40 -173 -178 -301 -389 -358 -97 -27 -346 -24 -455 6 -108 28 -213 83 -280
145 l-56 51 83 82 83 82 65 -49 c100 -76 212 -110 362 -110 232 0 362 108 345
290 -9 100 -65 171 -157 198 -19 6 -110 22 -202 36 -293 45 -400 102 -475 254
-36 72 -38 82 -42 188 -5 163 27 260 116 355 77 83 179 135 308 159 80 15 279
4 364 -20z m-2358 -494 c130 -281 241 -516 246 -524 6 -10 75 131 242 499 129
283 238 520 244 527 7 9 42 12 131 10 l121 -3 0 -845 0 -845 -125 0 -125 0 -5
558 -5 557 -189 -405 -190 -406 -94 3 -95 3 -189 395 c-104 217 -193 399 -198
404 -7 7 -10 -195 -10 -552 l0 -562 -125 0 -125 0 0 850 0 851 127 -3 127 -3
237 -509z m4200 -331 c168 -462 304 -843 302 -847 -2 -5 -62 -8 -132 -8 l-129
0 -58 170 -58 170 -332 0 -332 0 -43 -127 c-23 -71 -50 -147 -60 -170 l-18
-43 -132 0 c-101 0 -130 3 -127 13 3 6 141 389 308 850 l304 838 100 -3 101
-3 306 -840z"/>
<path d="M4671 3103 c-68 -197 -126 -364 -129 -370 -3 -10 51 -13 252 -13 141
0 256 3 256 8 0 14 -245 732 -250 732 -3 0 -61 -161 -129 -357z"/>
</g>
</svg>
