<?xml version="1.0" standalone="no"?>
<!DOCTYPE svg PUBLIC "-//W3C//DTD SVG 20010904//EN"
 "http://www.w3.org/TR/2001/REC-SVG-20010904/DTD/svg10.dtd">
<svg version="1.0" xmlns="http://www.w3.org/2000/svg"
 width="600.000000pt" height="600.000000pt" viewBox="0 0 600.000000 600.000000"
 preserveAspectRatio="xMidYMid meet">
<metadata>
Created by potrace 1.11, written by Peter Selinger 2001-2013
</metadata>
<g transform="translate(0.000000,600.000000) scale(0.100000,-0.100000)"
fill="#000000" stroke="none">
<path d="M2949 3851 c-97 -23 -187 -72 -248 -133 -48 -48 -107 -145 -117 -190
-18 -84 -20 -113 -17 -186 6 -173 79 -289 224 -363 74 -37 144 -55 284 -75
144 -20 163 -23 209 -35 116 -31 180 -136 162 -265 -19 -140 -127 -214 -321
-220 -183 -5 -323 40 -423 136 l-24 23 -83 -83 c-46 -46 -81 -88 -79 -94 10
-24 133 -111 199 -141 108 -50 193 -68 345 -71 142 -4 226 8 328 46 110 41
216 131 263 223 48 92 64 241 39 350 -49 208 -189 312 -475 352 -125 18 -225
38 -260 54 -99 44 -146 116 -141 216 6 106 55 177 156 223 47 21 70 25 155 25
121 1 219 -26 291 -78 27 -19 54 -38 60 -40 14 -8 163 145 157 161 -6 16 -106
85 -168 116 -83 42 -170 60 -310 64 -101 3 -147 -1 -206 -15z"/>
<path d="M510 3010 l0 -847 128 1 127 1 0 558 c0 306 1 557 3 557 2 0 87 -175
187 -385 23 -49 79 -165 123 -257 l81 -168 94 0 94 0 130 278 c72 152 157 334
189 404 32 69 60 125 62 123 2 -1 4 -252 5 -556 l2 -554 125 0 125 0 2 843 c1
463 -2 843 -5 844 -4 0 -62 2 -129 3 l-121 1 -73 -160 c-40 -89 -90 -199 -111
-246 -22 -47 -49 -105 -60 -130 -89 -196 -174 -383 -213 -465 l-23 -50 -16 37
c-9 20 -36 79 -61 130 -26 51 -46 94 -46 95 1 4 -70 159 -164 358 -26 55 -58
125 -72 155 -14 30 -49 105 -78 166 l-52 110 -126 0 -127 0 0 -846z"/>
<path d="M4690 3855 c0 -3 -270 -748 -290 -800 -10 -27 -58 -158 -105 -290
-48 -132 -115 -319 -151 -416 -35 -96 -64 -177 -64 -180 0 -3 61 -5 135 -5
l135 0 20 61 c31 99 91 269 96 274 6 6 644 7 653 1 4 -3 27 -61 50 -130 23
-69 49 -143 57 -166 l15 -40 130 0 c71 1 130 3 130 6 3 10 -42 142 -136 395
-18 49 -74 205 -125 345 -50 140 -95 264 -100 275 -4 11 -13 36 -20 55 -7 19
-16 44 -20 55 -5 11 -29 76 -53 145 -25 69 -69 190 -99 270 l-53 145 -102 1
c-57 0 -103 0 -103 -1z m264 -842 c53 -155 96 -283 96 -286 0 -3 -502 -2 -507
2 -1 0 16 52 38 114 23 61 47 130 54 152 34 105 155 446 161 457 5 8 19 -20
35 -72 15 -47 71 -212 123 -367z"/>
</g>
</svg>
