<svg xmlns="http://www.w3.org/2000/svg" width="230" height="42" viewBox="0 0 230 42">
    <g fill="#FFFFFE" fill-rule="evenodd">
        <path d="M130.248 19.666c-.772-.835-1.798-1.214-3.109-1.214h-3.365v13.096h3.365c1.311 0 2.337-.379 3.11-1.214.948-1.036.975-2.983.975-5.46 0-2.478-.027-4.172-.976-5.208zm1.9 12.64c-1.155 1.138-2.826 1.694-4.726 1.694H121V16h6.422c1.9 0 3.57.556 4.726 1.694 1.979 1.946 1.85 4.576 1.85 7.18s.129 5.486-1.85 7.433zM140 34V16h12v2.452h-9.151v5.259h7.807v2.427h-7.807v5.41H152V34h-12M163.45 35c-2.74 0-4.709-.656-6.45-2.467l1.843-1.862c1.33 1.364 2.79 1.783 4.658 1.783 2.38 0 3.76-1.049 3.76-2.86 0-.813-.23-1.496-.715-1.941-.462-.446-.922-.63-1.996-.787l-2.15-.316c-1.484-.21-2.661-.735-3.456-1.495-.895-.867-1.329-2.048-1.329-3.57 0-3.253 2.304-5.485 6.089-5.485 2.407 0 4.095.63 5.656 2.127l-1.765 1.784c-1.125-1.102-2.432-1.444-3.967-1.444-2.15 0-3.326 1.26-3.326 2.913 0 .682.204 1.286.69 1.733.46.42 1.203.734 2.047.865l2.073.316c1.689.263 2.636.681 3.404 1.39.997.891 1.484 2.231 1.484 3.83 0 3.44-2.738 5.486-6.55 5.486M178 34h3V16h-3zM200.263 32.875C198.799 34.37 196.98 35 194.946 35c-2.007 0-3.744-.708-5.074-1.994-1.898-1.837-1.872-3.91-1.872-7.506 0-3.595-.026-5.667 1.872-7.505 1.33-1.285 3.012-1.995 5.074-1.995 4.097 0 6.484 2.599 7.027 5.8h-2.956c-.49-2.046-1.9-3.254-4.071-3.254-1.139 0-2.17.446-2.85 1.155-.949.997-1.166 2.047-1.166 5.8 0 3.753.217 4.828 1.167 5.826.678.708 1.71 1.127 2.849 1.127 1.275 0 2.386-.471 3.147-1.311.706-.788.976-1.732.976-2.94v-1.049h-4.123V24.74H202v2.86c0 2.415-.46 3.964-1.737 5.276M219.414 34l-8.594-12.665V34H208V16h2.586l8.594 12.641V16H222v18h-2.586M98.073 42H101L71.895 0H0v2.464h70.676L98.073 42M23.248 34V21.967l-4.178 8.772h-2.038l-4.28-8.772V34H10V16h2.752l5.3 11.2L23.248 16H26v18h-2.752"/>
        <path d="M37.45 35c-2.74 0-4.708-.656-6.45-2.467l1.843-1.862c1.33 1.364 2.79 1.783 4.658 1.783 2.38 0 3.76-1.049 3.76-2.86 0-.813-.23-1.496-.714-1.941-.463-.446-.923-.63-1.997-.787l-2.15-.316c-1.484-.21-2.661-.735-3.456-1.495-.895-.867-1.328-2.048-1.328-3.57 0-3.253 2.303-5.485 6.088-5.485 2.407 0 4.095.63 5.655 2.127l-1.764 1.784c-1.126-1.102-2.432-1.444-3.967-1.444-2.15 0-3.325 1.26-3.325 2.913 0 .682.202 1.286.69 1.733.46.42 1.202.734 2.046.865l2.073.316c1.69.263 2.636.681 3.404 1.39.997.891 1.484 2.231 1.484 3.83C44 32.955 41.261 35 37.45 35M58.065 20.07l-2.916 7.99h5.753l-2.837-7.99zM62.979 34l-1.287-3.614h-7.384L53.02 34H50l6.856-18h2.286L66 34h-3.02zM230 0H111l1.62 2h117.36l.02-.025V0"/>
    </g>
</svg>
