<?xml version="1.0" encoding="UTF-8"?>
<svg width="230px" height="42px" viewBox="0 0 230 42" version="1.1" xmlns="http://www.w3.org/2000/svg" xmlns:xlink="http://www.w3.org/1999/xlink">
    <!-- Generator: Sketch 49.3 (51167) - http://www.bohemiancoding.com/sketch -->
    <title>Slice 1</title>
    <desc>Created with Sketch.</desc>
    <defs></defs>
    <g id="Page-1" stroke="none" stroke-width="1" fill="none" fill-rule="evenodd">
        <g id="msa-logo" fill="#000000">
            <path d="M130.248,19.666 C129.476,18.831 128.45,18.452 127.139,18.452 L123.774,18.452 L123.774,31.548 L127.139,31.548 C128.45,31.548 129.476,31.169 130.249,30.334 C131.197,29.298 131.224,27.351 131.224,24.874 C131.224,22.396 131.197,20.702 130.248,19.666 Z M132.148,32.306 C130.993,33.444 129.322,34 127.422,34 L121,34 L121,16 L127.422,16 C129.322,16 130.992,16.556 132.148,17.694 C134.127,19.64 133.998,22.27 133.998,24.874 C133.998,27.478 134.127,30.36 132.148,32.307 L132.148,32.306 Z M140,34 L140,16 L152,16 L152,18.452 L142.849,18.452 L142.849,23.711 L150.656,23.711 L150.656,26.138 L142.849,26.138 L142.849,31.548 L152,31.548 L152,34 L140,34 Z M163.45,35 C160.71,35 158.741,34.344 157,32.533 L158.843,30.671 C160.173,32.035 161.633,32.454 163.501,32.454 C165.881,32.454 167.261,31.405 167.261,29.594 C167.261,28.781 167.031,28.098 166.546,27.653 C166.084,27.207 165.624,27.023 164.55,26.866 L162.4,26.55 C160.916,26.34 159.739,25.815 158.944,25.055 C158.049,24.188 157.615,23.007 157.615,21.485 C157.615,18.232 159.919,16 163.704,16 C166.111,16 167.799,16.63 169.36,18.127 L167.595,19.911 C166.47,18.809 165.163,18.467 163.628,18.467 C161.478,18.467 160.302,19.727 160.302,21.38 C160.302,22.062 160.506,22.666 160.992,23.113 C161.452,23.533 162.195,23.847 163.039,23.978 L165.112,24.294 C166.801,24.557 167.748,24.975 168.516,25.684 C169.513,26.575 170,27.915 170,29.514 C170,32.954 167.262,35 163.45,35 Z M178,34 L181,34 L181,16 L178,16 L178,34 Z M200.263,32.875 C198.799,34.37 196.98,35 194.946,35 C192.939,35 191.202,34.292 189.872,33.006 C187.974,31.169 188,29.096 188,25.5 C188,21.905 187.974,19.833 189.872,17.995 C191.202,16.71 192.884,16 194.946,16 C199.043,16 201.43,18.599 201.973,21.8 L199.017,21.8 C198.527,19.754 197.117,18.546 194.946,18.546 C193.807,18.546 192.776,18.992 192.096,19.701 C191.147,20.698 190.93,21.748 190.93,25.501 C190.93,29.254 191.147,30.329 192.097,31.327 C192.775,32.035 193.807,32.454 194.946,32.454 C196.221,32.454 197.332,31.983 198.093,31.143 C198.799,30.355 199.069,29.411 199.069,28.203 L199.069,27.154 L194.946,27.154 L194.946,24.74 L202,24.74 L202,27.6 C202,30.015 201.54,31.564 200.263,32.876 L200.263,32.875 Z M219.414,34 L210.82,21.335 L210.82,34 L208,34 L208,16 L210.586,16 L219.18,28.641 L219.18,16 L222,16 L222,34 L219.414,34 Z M98.073,42 L101,42 L71.895,0 L0,0 L0,2.464 L70.676,2.464 L98.073,42 Z M23.248,34 L23.248,21.967 L19.07,30.739 L17.032,30.739 L12.752,21.967 L12.752,34 L10,34 L10,16 L12.752,16 L18.052,27.2 L23.248,16 L26,16 L26,34 L23.248,34 Z" id="Shape"></path>
            <path d="M37.45,35 C34.71,35 32.742,34.344 31,32.533 L32.843,30.671 C34.173,32.035 35.633,32.454 37.501,32.454 C39.881,32.454 41.261,31.405 41.261,29.594 C41.261,28.781 41.031,28.098 40.547,27.653 C40.084,27.207 39.624,27.023 38.55,26.866 L36.4,26.55 C34.916,26.34 33.739,25.815 32.944,25.055 C32.049,24.188 31.616,23.007 31.616,21.485 C31.616,18.232 33.919,16 37.704,16 C40.111,16 41.799,16.63 43.359,18.127 L41.595,19.911 C40.469,18.809 39.163,18.467 37.628,18.467 C35.478,18.467 34.303,19.727 34.303,21.38 C34.303,22.062 34.505,22.666 34.993,23.113 C35.453,23.533 36.195,23.847 37.039,23.978 L39.112,24.294 C40.802,24.557 41.748,24.975 42.516,25.684 C43.513,26.575 44,27.915 44,29.514 C44,32.955 41.261,35 37.45,35 Z M58.065,20.07 L55.149,28.06 L60.902,28.06 L58.065,20.07 Z M62.979,34 L61.692,30.386 L54.308,30.386 L53.02,34 L50,34 L56.856,16 L59.142,16 L66,34 L62.98,34 L62.979,34 Z M230,0 L111,0 L112.62,2 L229.98,2 L230,1.975 L230,0 Z" id="Shape"></path>
        </g>
    </g>
</svg>