<svg width="230" height="42" xmlns="http://www.w3.org/2000/svg"><g fill="none" fill-rule="evenodd"><path d="M98.073 42H101L71.895 0H0v2.464h70.676L98.073 42m-74.825-8V21.967l-4.178 8.772h-2.038l-4.28-8.772V34H10V16h2.752l5.3 11.2L23.248 16H26v18h-2.752" fill="#FFFFFE"/><path d="M130.815 35.575c-2.891 0-4.985-.67-6.815-2.534l1.951-1.922a6.36 6.36 0 004.92 1.836c2.514 0 3.974-1.082 3.974-2.947a2.59 2.59 0 00-.74-1.993 3.333 3.333 0 00-2.137-.812l-2.271-.32a6.63 6.63 0 01-3.653-1.545 4.783 4.783 0 01-1.424-3.68c0-3.353 2.428-5.645 6.408-5.645a8.048 8.048 0 015.982 2.185l-1.866 1.844a5.648 5.648 0 00-4.194-1.488c-2.272 0-3.518 1.296-3.518 2.997a2.278 2.278 0 00.712 1.787 4.273 4.273 0 002.136.89l2.187.327a6.367 6.367 0 013.596 1.424 5.046 5.046 0 011.573 3.95c.107 3.539-2.82 5.646-6.821 5.646zm20.842-7.731h-4.38v7.574h-2.919V16.162h7.299c3.76 0 6.167 2.492 6.167 5.845 0 3.353-2.407 5.837-6.167 5.837zm-.157-9.083h-4.222v6.406h4.222c2.023 0 3.404-1.16 3.404-3.189s-1.381-3.217-3.404-3.217zm23.905 14.764a7.3 7.3 0 01-10.147 0c-1.887-1.894-1.866-4.03-1.866-7.731 0-3.702 0-5.845 1.866-7.738a7.3 7.3 0 0110.147-.007c1.894 1.893 1.837 4.029 1.837 7.738 0 3.709.021 5.844-1.837 7.738zm-2.222-13.71a4.052 4.052 0 00-5.732 0c-.947 1.024-1.14 2.135-1.14 5.979 0 3.844.193 4.947 1.14 5.972a4.052 4.052 0 005.732 0c.947-1.025 1.14-2.135 1.14-5.972 0-3.837-.229-4.955-1.176-5.98h.036zm21.676 15.603l-4.06-8.115h-3.652v8.115h-2.92V16.162h7.463c3.653 0 5.981 2.357 5.981 5.624a5.054 5.054 0 01-3.845 5.111l4.436 8.543-3.403-.022zm-3.383-16.657h-4.33v6.03h4.33c1.944 0 3.269-1.111 3.269-3.005s-1.325-3.025-3.269-3.025zm19.675 0v16.657h-2.92V18.761h-5.305v-2.599h13.53v2.599h-5.305z" fill="#FFF" fill-rule="nonzero"/><path d="M37.45 35c-2.74 0-4.708-.656-6.45-2.467l1.843-1.862c1.33 1.364 2.79 1.783 4.658 1.783 2.38 0 3.76-1.049 3.76-2.86 0-.813-.23-1.496-.714-1.941-.463-.446-.923-.63-1.997-.787l-2.15-.316c-1.484-.21-2.661-.735-3.456-1.495-.895-.867-1.328-2.048-1.328-3.57 0-3.253 2.303-5.485 6.088-5.485 2.407 0 4.095.63 5.655 2.127l-1.764 1.784c-1.126-1.102-2.432-1.444-3.967-1.444-2.15 0-3.325 1.26-3.325 2.913 0 .682.202 1.286.69 1.733.46.42 1.202.734 2.046.865l2.073.316c1.69.263 2.636.681 3.404 1.39.997.891 1.484 2.231 1.484 3.83C44 32.955 41.261 35 37.45 35m20.615-14.93l-2.916 7.99h5.753l-2.837-7.99zM62.979 34l-1.287-3.614h-7.384L53.02 34H50l6.856-18h2.286L66 34h-3.021zM230 0H111l1.62 2h117.36l.02-.025V0" fill="#FFFFFE"/></g></svg>